G04*
G04 #@! TF.GenerationSoftware,Altium Limited,Altium Designer,21.3.2 (30)*
G04*
G04 Layer_Color=8388736*
%FSTAX24Y24*%
%MOIN*%
G70*
G04*
G04 #@! TF.SameCoordinates,EE84E971-A179-45D2-A11A-C0C70DBEE314*
G04*
G04*
G04 #@! TF.FilePolarity,Negative*
G04*
G01*
G75*
%ADD23R,0.1655X0.1655*%
G04:AMPARAMS|DCode=24|XSize=74.9mil|YSize=43.4mil|CornerRadius=7.9mil|HoleSize=0mil|Usage=FLASHONLY|Rotation=0.000|XOffset=0mil|YOffset=0mil|HoleType=Round|Shape=RoundedRectangle|*
%AMROUNDEDRECTD24*
21,1,0.0749,0.0276,0,0,0.0*
21,1,0.0591,0.0434,0,0,0.0*
1,1,0.0158,0.0296,-0.0138*
1,1,0.0158,-0.0296,-0.0138*
1,1,0.0158,-0.0296,0.0138*
1,1,0.0158,0.0296,0.0138*
%
%ADD24ROUNDEDRECTD24*%
G04:AMPARAMS|DCode=25|XSize=74.9mil|YSize=43.4mil|CornerRadius=7.9mil|HoleSize=0mil|Usage=FLASHONLY|Rotation=90.000|XOffset=0mil|YOffset=0mil|HoleType=Round|Shape=RoundedRectangle|*
%AMROUNDEDRECTD25*
21,1,0.0749,0.0276,0,0,90.0*
21,1,0.0591,0.0434,0,0,90.0*
1,1,0.0158,0.0138,0.0296*
1,1,0.0158,0.0138,-0.0296*
1,1,0.0158,-0.0138,-0.0296*
1,1,0.0158,-0.0138,0.0296*
%
%ADD25ROUNDEDRECTD25*%
%ADD26R,0.1261X0.0867*%
%ADD27R,0.0552X0.0631*%
%ADD28R,0.0631X0.0552*%
%ADD29R,0.0674X0.0674*%
%ADD30C,0.0674*%
%ADD31C,0.1261*%
%ADD32O,0.1458X0.1576*%
%ADD33R,0.0789X0.0789*%
%ADD34C,0.0789*%
%ADD35R,0.0706X0.0706*%
%ADD36C,0.0706*%
%ADD37C,0.0880*%
%ADD38R,0.0880X0.0880*%
%ADD39C,0.0710*%
%ADD40R,0.0710X0.0710*%
%ADD41O,0.1080X0.0740*%
%ADD42C,0.0671*%
%ADD43R,0.0671X0.0671*%
%ADD44C,0.0360*%
%ADD45C,0.0580*%
D23*
X039724Y025123D02*
D03*
D24*
X036457Y028041D02*
D03*
Y027541D02*
D03*
Y027041D02*
D03*
Y026541D02*
D03*
Y026041D02*
D03*
Y025541D02*
D03*
Y025041D02*
D03*
Y024541D02*
D03*
Y024041D02*
D03*
Y023541D02*
D03*
Y023041D02*
D03*
Y022541D02*
D03*
Y022041D02*
D03*
Y021541D02*
D03*
X043543D02*
D03*
Y022041D02*
D03*
Y022541D02*
D03*
Y023041D02*
D03*
Y023541D02*
D03*
Y024041D02*
D03*
Y024541D02*
D03*
Y025041D02*
D03*
Y025541D02*
D03*
Y026041D02*
D03*
Y026541D02*
D03*
Y027041D02*
D03*
Y027541D02*
D03*
Y028041D02*
D03*
D25*
X03775Y02095D02*
D03*
X03825D02*
D03*
X03875D02*
D03*
X03925D02*
D03*
X03975D02*
D03*
X04025D02*
D03*
X04075D02*
D03*
X04125D02*
D03*
X04175D02*
D03*
X04225D02*
D03*
D26*
X031Y0224D02*
D03*
X029425D02*
D03*
X02985Y02545D02*
D03*
X031425D02*
D03*
D27*
X034526Y026226D02*
D03*
X044928Y021576D02*
D03*
X045676D02*
D03*
X030474Y024051D02*
D03*
X031222D02*
D03*
X030474Y021224D02*
D03*
X031222D02*
D03*
X033778Y026226D02*
D03*
D28*
X033349Y027124D02*
D03*
Y027872D02*
D03*
X034249Y027124D02*
D03*
Y027872D02*
D03*
X035149Y027124D02*
D03*
Y027872D02*
D03*
D29*
X0387Y031772D02*
D03*
D30*
X0397D02*
D03*
X0407D02*
D03*
X0417D02*
D03*
D31*
X046401Y031496D02*
D03*
X033999D02*
D03*
Y019804D02*
D03*
X046401D02*
D03*
D32*
X027418Y030806D02*
D03*
X030882D02*
D03*
D33*
X028166Y02805D02*
D03*
D34*
X02915D02*
D03*
X030134D02*
D03*
D35*
X045884Y03445D02*
D03*
D36*
X043916D02*
D03*
D37*
X04575Y0261D02*
D03*
D38*
Y0291D02*
D03*
D39*
X0339Y03405D02*
D03*
X0329D02*
D03*
X0349D02*
D03*
X0359D02*
D03*
D40*
X0319D02*
D03*
D41*
X0458Y02255D02*
D03*
Y02355D02*
D03*
Y02455D02*
D03*
D42*
X0413Y03465D02*
D03*
X0403D02*
D03*
X0393D02*
D03*
D43*
X0383D02*
D03*
D44*
X027495Y035521D02*
D03*
X046745Y029371D02*
D03*
X044895Y019521D02*
D03*
X046745Y027221D02*
D03*
Y030121D02*
D03*
Y025371D02*
D03*
X0449Y0209D02*
D03*
X042412Y0234D02*
D03*
X0428Y0226D02*
D03*
X0446Y02735D02*
D03*
X04475Y02665D02*
D03*
X0422Y0202D02*
D03*
X04475Y026D02*
D03*
D45*
X04435Y03135D02*
D03*
X0447Y02525D02*
D03*
M02*
