G04*
G04 #@! TF.GenerationSoftware,Altium Limited,Altium Designer,21.3.2 (30)*
G04*
G04 Layer_Color=128*
%FSTAX24Y24*%
%MOIN*%
G70*
G04*
G04 #@! TF.SameCoordinates,EE84E971-A179-45D2-A11A-C0C70DBEE314*
G04*
G04*
G04 #@! TF.FilePolarity,Positive*
G04*
G01*
G75*
%ADD65C,0.0020*%
D65*
X038503Y031772D02*
X038897D01*
X0387Y031575D02*
Y031969D01*
X039503Y031772D02*
X039897D01*
X0397Y031575D02*
Y031969D01*
X040503Y031772D02*
X040897D01*
X0407Y031575D02*
Y031969D01*
X041503Y031772D02*
X041897D01*
X0417Y031575D02*
Y031969D01*
X04581Y031496D02*
X046991D01*
X046401Y030906D02*
Y032087D01*
X033409Y031496D02*
X03459D01*
X033999Y030906D02*
Y032087D01*
X033409Y019804D02*
X03459D01*
X033999Y019213D02*
Y020394D01*
X04581Y019804D02*
X046991D01*
X046401Y019213D02*
Y020394D01*
X027024Y030806D02*
X027811D01*
X027418Y030412D02*
Y0312D01*
X030489Y030806D02*
X031276D01*
X030882Y030412D02*
Y0312D01*
X02793Y02805D02*
X028402D01*
X028166Y027814D02*
Y028286D01*
X028914Y02805D02*
X029386D01*
X02915Y027814D02*
Y028286D01*
X029898Y02805D02*
X03037D01*
X030134Y027814D02*
Y028286D01*
X045676Y03445D02*
X046093D01*
X045884Y034241D02*
Y034659D01*
X043707Y03445D02*
X044124D01*
X043916Y034241D02*
Y034659D01*
X045575Y0261D02*
X045925D01*
X04575Y025925D02*
Y026275D01*
X045575Y0291D02*
X045925D01*
X04575Y028925D02*
Y029275D01*
X033743Y03405D02*
X034057D01*
X0339Y033893D02*
Y034207D01*
X031743Y03405D02*
X032057D01*
X0319Y033893D02*
Y034207D01*
X032743Y03405D02*
X033057D01*
X0329Y033893D02*
Y034207D01*
X034743Y03405D02*
X035057D01*
X0349Y033893D02*
Y034207D01*
X035743Y03405D02*
X036057D01*
X0359Y033893D02*
Y034207D01*
X04564Y02255D02*
X04596D01*
X0458Y02239D02*
Y02271D01*
X04564Y02355D02*
X04596D01*
X0458Y02339D02*
Y02371D01*
X04564Y02455D02*
X04596D01*
X0458Y02439D02*
Y02471D01*
X041123Y03465D02*
X041477D01*
X0413Y034473D02*
Y034827D01*
X040123Y03465D02*
X040477D01*
X0403Y034473D02*
Y034827D01*
X039123Y03465D02*
X039477D01*
X0393Y034473D02*
Y034827D01*
X038123Y03465D02*
X038477D01*
X0383Y034473D02*
Y034827D01*
X027355Y035521D02*
X027635D01*
X027495Y035381D02*
Y035661D01*
X046605Y029371D02*
X046885D01*
X046745Y029231D02*
Y029511D01*
X044755Y019521D02*
X045035D01*
X044895Y019381D02*
Y019661D01*
X046605Y027221D02*
X046885D01*
X046745Y027081D02*
Y027361D01*
X046605Y030121D02*
X046885D01*
X046745Y029981D02*
Y030261D01*
X046605Y025371D02*
X046885D01*
X046745Y025231D02*
Y025511D01*
X04421Y03135D02*
X04449D01*
X04435Y03121D02*
Y03149D01*
X04476Y0209D02*
X04504D01*
X0449Y02076D02*
Y02104D01*
X042272Y0234D02*
X042552D01*
X042412Y02326D02*
Y02354D01*
X04266Y0226D02*
X04294D01*
X0428Y02246D02*
Y02274D01*
X04446Y02735D02*
X04474D01*
X0446Y02721D02*
Y02749D01*
X04461Y02665D02*
X04489D01*
X04475Y02651D02*
Y02679D01*
X04206Y0202D02*
X04234D01*
X0422Y02006D02*
Y02034D01*
X04456Y02525D02*
X04484D01*
X0447Y02511D02*
Y02539D01*
X04461Y026D02*
X04489D01*
X04475Y02586D02*
Y02614D01*
M02*
