G04*
G04 #@! TF.GenerationSoftware,Altium Limited,Altium Designer,21.3.2 (30)*
G04*
G04 Layer_Physical_Order=2*
G04 Layer_Color=16711680*
%FSTAX24Y24*%
%MOIN*%
G70*
G04*
G04 #@! TF.SameCoordinates,EE84E971-A179-45D2-A11A-C0C70DBEE314*
G04*
G04*
G04 #@! TF.FilePolarity,Positive*
G04*
G01*
G75*
%ADD46C,0.0157*%
%ADD47C,0.0394*%
%ADD48R,0.0594X0.0594*%
%ADD49C,0.0594*%
%ADD50C,0.1181*%
%ADD51O,0.1378X0.1496*%
%ADD52R,0.0709X0.0709*%
%ADD53C,0.0709*%
%ADD54R,0.0626X0.0626*%
%ADD55C,0.0626*%
%ADD56C,0.0800*%
%ADD57R,0.0800X0.0800*%
%ADD58C,0.0630*%
%ADD59R,0.0630X0.0630*%
%ADD60O,0.1000X0.0660*%
%ADD61C,0.0591*%
%ADD62R,0.0591X0.0591*%
%ADD63C,0.0500*%
G36*
X047203Y031748D02*
X047153Y031738D01*
X047099Y031869D01*
X047012Y031998D01*
X046903Y032108D01*
X046774Y032194D01*
X04663Y032254D01*
X046478Y032284D01*
X046323D01*
X046171Y032254D01*
X046028Y032194D01*
X045899Y032108D01*
X045789Y031998D01*
X045703Y031869D01*
X045644Y031726D01*
X045613Y031574D01*
Y031419D01*
X045644Y031267D01*
X045703Y031123D01*
X045789Y030995D01*
X045899Y030885D01*
X046028Y030799D01*
X046171Y030739D01*
X046323Y030709D01*
X046478D01*
X04663Y030739D01*
X046774Y030799D01*
X046903Y030885D01*
X047012Y030995D01*
X047099Y031123D01*
X047153Y031255D01*
X047203Y031245D01*
Y020055D01*
X047153Y020045D01*
X047099Y020177D01*
X047012Y020305D01*
X046903Y020415D01*
X046774Y020501D01*
X04663Y020561D01*
X046478Y020591D01*
X046323D01*
X046171Y020561D01*
X046028Y020501D01*
X045899Y020415D01*
X045789Y020305D01*
X045703Y020177D01*
X045644Y020033D01*
X045613Y019881D01*
Y019726D01*
X045644Y019574D01*
X045703Y019431D01*
X045789Y019302D01*
X045899Y019192D01*
X046028Y019106D01*
X046171Y019046D01*
X046323Y019016D01*
X046478D01*
X04663Y019046D01*
X046774Y019106D01*
X046903Y019192D01*
X047012Y019302D01*
X047099Y019431D01*
X047153Y019562D01*
X047203Y019552D01*
Y018597D01*
X026597D01*
Y036453D01*
X047203D01*
Y031748D01*
D02*
G37*
%LPC*%
G36*
X046394Y03496D02*
X045374D01*
Y03394D01*
X046394D01*
Y03496D01*
D02*
G37*
G36*
X043983D02*
X043849D01*
X043719Y034925D01*
X043603Y034858D01*
X043508Y034763D01*
X043441Y034647D01*
X043406Y034517D01*
Y034383D01*
X043441Y034253D01*
X043508Y034137D01*
X043603Y034042D01*
X043719Y033975D01*
X043849Y03394D01*
X043983D01*
X044113Y033975D01*
X044229Y034042D01*
X044324Y034137D01*
X044391Y034253D01*
X044426Y034383D01*
Y034517D01*
X044391Y034647D01*
X044324Y034763D01*
X044229Y034858D01*
X044113Y034925D01*
X043983Y03496D01*
D02*
G37*
G36*
X0418Y035528D02*
X0405D01*
X040428Y035519D01*
X040361Y035491D01*
X040303Y035447D01*
X040122Y035265D01*
X040078Y035207D01*
X04005Y03514D01*
X04004Y035068D01*
X039998Y035044D01*
X039906Y034952D01*
X039841Y03484D01*
X039808Y034715D01*
Y034585D01*
X039841Y03446D01*
X039906Y034348D01*
X039998Y034256D01*
X04011Y034191D01*
X040235Y034158D01*
X040365D01*
X04049Y034191D01*
X040602Y034256D01*
X040694Y034348D01*
X040759Y03446D01*
X040774Y034518D01*
X040826D01*
X040841Y03446D01*
X040906Y034348D01*
X040998Y034256D01*
X04111Y034191D01*
X041235Y034158D01*
X041365D01*
X04149Y034191D01*
X041602Y034256D01*
X041694Y034348D01*
X041759Y03446D01*
X041792Y034585D01*
Y034715D01*
X041763Y034823D01*
X041808Y034849D01*
X041872Y034785D01*
Y033592D01*
X041881Y03352D01*
X041909Y033453D01*
X041953Y033396D01*
X042046Y033303D01*
X042103Y033259D01*
X04217Y033231D01*
X042242Y033222D01*
X044085D01*
X044722Y032585D01*
Y031986D01*
X044691Y031974D01*
X044672Y031971D01*
X044617Y032013D01*
X04455Y032041D01*
X044478Y03205D01*
X04211D01*
X042095Y032075D01*
X042003Y032167D01*
X041891Y032232D01*
X041765Y032266D01*
X041635D01*
X041509Y032232D01*
X041397Y032167D01*
X041305Y032075D01*
X04124Y031963D01*
X041226Y03191D01*
X041174D01*
X04116Y031963D01*
X041095Y032075D01*
X041003Y032167D01*
X040891Y032232D01*
X040765Y032266D01*
X040635D01*
X040509Y032232D01*
X040397Y032167D01*
X040305Y032075D01*
X04024Y031963D01*
X040206Y031837D01*
Y031707D01*
X04024Y031581D01*
X040305Y031469D01*
X040397Y031377D01*
X040509Y031312D01*
X040635Y031278D01*
X040765D01*
X040793Y031286D01*
X040841Y031238D01*
X040822Y031192D01*
X036452D01*
X036375Y031177D01*
X03631Y031133D01*
X036267Y031068D01*
X036251Y030991D01*
Y028807D01*
X036205Y028788D01*
X035926Y029067D01*
Y033302D01*
X035916Y033374D01*
X035889Y033441D01*
X035852Y033488D01*
X035864Y033523D01*
X035876Y033538D01*
X035967D01*
X036098Y033573D01*
X036214Y03364D01*
X03631Y033736D01*
X036377Y033852D01*
X036412Y033983D01*
Y034117D01*
X036389Y034203D01*
X036427Y034253D01*
X037808D01*
Y034158D01*
X037903D01*
Y032172D01*
X037916Y032069D01*
X037956Y031974D01*
X038019Y031891D01*
X038206Y031704D01*
Y031278D01*
X039194D01*
Y032266D01*
X038768D01*
X038697Y032337D01*
Y034158D01*
X038792D01*
Y035142D01*
X037808D01*
Y035047D01*
X035703D01*
X035632Y035118D01*
X035549Y035181D01*
X035454Y035221D01*
X035351Y035234D01*
X032687D01*
X032585Y035221D01*
X032489Y035181D01*
X032407Y035118D01*
X031896Y034608D01*
X031849Y034644D01*
X031753Y034684D01*
X03165Y034697D01*
X029281D01*
X029178Y034684D01*
X029082Y034644D01*
X029Y034581D01*
X028769Y03435D01*
X028706Y034268D01*
X028666Y034172D01*
X028653Y034069D01*
Y029099D01*
X028155Y028601D01*
X027615D01*
Y027499D01*
X028717D01*
Y027638D01*
X028763Y027657D01*
X028812Y027609D01*
X028937Y027536D01*
X029077Y027499D01*
X029223D01*
X029363Y027536D01*
X029488Y027609D01*
X029591Y027712D01*
X029664Y027837D01*
X029701Y027977D01*
Y028123D01*
X029664Y028263D01*
X029591Y028388D01*
X029488Y028491D01*
X029363Y028564D01*
X029315Y028576D01*
X029302Y028625D01*
X029331Y028653D01*
X029394Y028736D01*
X029434Y028831D01*
X029447Y028934D01*
Y033903D01*
X031388D01*
Y033538D01*
X032412D01*
Y034D01*
X032852Y03444D01*
X033501D01*
X03352Y034394D01*
X03349Y034364D01*
X033423Y034248D01*
X033388Y034117D01*
Y033983D01*
X033423Y033852D01*
X03349Y033736D01*
X033586Y03364D01*
X033702Y033573D01*
X033833Y033538D01*
X033967D01*
X034008Y033549D01*
X03487Y032687D01*
Y029142D01*
X034879Y02907D01*
X034907Y029003D01*
X034951Y028945D01*
X041493Y022403D01*
X04155Y022359D01*
X041618Y022332D01*
X041689Y022322D01*
X042446D01*
X042526Y022242D01*
X042628Y022184D01*
X042741Y022153D01*
X042859D01*
X042972Y022184D01*
X043074Y022242D01*
X043158Y022326D01*
X043216Y022428D01*
X043247Y022541D01*
Y022659D01*
X043216Y022772D01*
X043158Y022874D01*
X043074Y022958D01*
X042972Y023016D01*
X042859Y023047D01*
X042762D01*
X042741Y023097D01*
X04277Y023126D01*
X042829Y023228D01*
X042859Y023341D01*
Y023459D01*
X042829Y023572D01*
X04277Y023674D01*
X042687Y023758D01*
X042585Y023816D01*
X042471Y023847D01*
X042353D01*
X04224Y023816D01*
X042138Y023758D01*
X042058Y023678D01*
X041315D01*
X036902Y028092D01*
X036921Y028138D01*
X043543D01*
X043564Y028142D01*
X043603Y02811D01*
Y025719D01*
X043613Y025647D01*
X04364Y02558D01*
X043685Y025522D01*
X044142Y025065D01*
X0442Y025021D01*
X044267Y024993D01*
X044338Y024983D01*
X044342Y024976D01*
X044426Y024892D01*
X044528Y024834D01*
X044641Y024803D01*
X044759D01*
X044872Y024834D01*
X044974Y024892D01*
X045058Y024976D01*
X045116Y025078D01*
X045147Y025191D01*
Y025309D01*
X045116Y025422D01*
X045058Y025524D01*
X045007Y025575D01*
X045015Y025637D01*
X045024Y025642D01*
X045108Y025726D01*
X045164Y025824D01*
X045188Y025829D01*
X045216Y025831D01*
X045221Y025817D01*
X045286Y02572D01*
X04537Y025636D01*
X045467Y025571D01*
X045576Y025526D01*
X045691Y025503D01*
X045809D01*
X045924Y025526D01*
X046033Y025571D01*
X04613Y025636D01*
X046214Y02572D01*
X046279Y025817D01*
X046324Y025926D01*
X046347Y026041D01*
Y026159D01*
X046324Y026274D01*
X046279Y026383D01*
X046214Y02648D01*
X04613Y026564D01*
X046033Y026629D01*
X045924Y026674D01*
X045809Y026697D01*
X045691D01*
X045576Y026674D01*
X045467Y026629D01*
X04537Y026564D01*
X045286Y02648D01*
X045221Y026383D01*
X045176Y026274D01*
X045172Y026256D01*
X045123Y026247D01*
X045108Y026274D01*
X045057Y026325D01*
X045108Y026376D01*
X045166Y026478D01*
X045197Y026591D01*
Y026709D01*
X045178Y026778D01*
X045197Y026796D01*
X045241Y026854D01*
X045269Y026921D01*
X045278Y026993D01*
Y028503D01*
X046347D01*
Y029697D01*
X045278D01*
Y0327D01*
X045269Y032772D01*
X045241Y032839D01*
X045197Y032897D01*
X044397Y033697D01*
X044339Y033741D01*
X044272Y033768D01*
X0442Y033778D01*
X042428D01*
Y0349D01*
X042418Y034972D01*
X042391Y035039D01*
X042347Y035097D01*
X041997Y035447D01*
X041939Y035491D01*
X041872Y035519D01*
X0418Y035528D01*
D02*
G37*
G36*
X034077Y032284D02*
X033922D01*
X03377Y032254D01*
X033626Y032194D01*
X033497Y032108D01*
X033388Y031998D01*
X033301Y031869D01*
X033242Y031726D01*
X033212Y031574D01*
Y031419D01*
X033242Y031267D01*
X033301Y031123D01*
X033388Y030995D01*
X033497Y030885D01*
X033626Y030799D01*
X03377Y030739D01*
X033922Y030709D01*
X034077D01*
X034229Y030739D01*
X034372Y030799D01*
X034501Y030885D01*
X034611Y030995D01*
X034697Y031123D01*
X034756Y031267D01*
X034787Y031419D01*
Y031574D01*
X034756Y031726D01*
X034697Y031869D01*
X034611Y031998D01*
X034501Y032108D01*
X034372Y032194D01*
X034229Y032254D01*
X034077Y032284D01*
D02*
G37*
G36*
X04597Y025081D02*
X04563D01*
X045492Y025063D01*
X045364Y02501D01*
X045254Y024926D01*
X04517Y024816D01*
X045117Y024688D01*
X045099Y02455D01*
X045117Y024412D01*
X04517Y024284D01*
X045254Y024174D01*
X045364Y02409D01*
X0454Y024075D01*
Y024025D01*
X045364Y02401D01*
X045254Y023926D01*
X04517Y023816D01*
X045117Y023688D01*
X045099Y02355D01*
X045117Y023412D01*
X04517Y023284D01*
X045254Y023174D01*
X045364Y02309D01*
X045492Y023037D01*
X04563Y023019D01*
X04597D01*
X046108Y023037D01*
X046236Y02309D01*
X046346Y023174D01*
X04643Y023284D01*
X046483Y023412D01*
X046501Y02355D01*
X046483Y023688D01*
X04643Y023816D01*
X046346Y023926D01*
X046236Y02401D01*
X0462Y024025D01*
Y024075D01*
X046236Y02409D01*
X046346Y024174D01*
X04643Y024284D01*
X046483Y024412D01*
X046501Y02455D01*
X046483Y024688D01*
X04643Y024816D01*
X046346Y024926D01*
X046236Y02501D01*
X046108Y025063D01*
X04597Y025081D01*
D02*
G37*
G36*
X044959Y021347D02*
X044841D01*
X044728Y021316D01*
X044626Y021258D01*
X044542Y021174D01*
X044484Y021072D01*
X044453Y020959D01*
Y020846D01*
X044085Y020478D01*
X042554D01*
X042474Y020558D01*
X042372Y020616D01*
X042259Y020647D01*
X042141D01*
X042028Y020616D01*
X041926Y020558D01*
X041842Y020474D01*
X041784Y020372D01*
X041753Y020259D01*
Y020141D01*
X041784Y020028D01*
X041842Y019926D01*
X041926Y019842D01*
X042028Y019784D01*
X042141Y019753D01*
X042259D01*
X042372Y019784D01*
X042474Y019842D01*
X042554Y019922D01*
X0442D01*
X044272Y019931D01*
X044339Y019959D01*
X044397Y020003D01*
X044846Y020453D01*
X044959D01*
X045072Y020484D01*
X045174Y020542D01*
X045258Y020626D01*
X045316Y020728D01*
X045347Y020841D01*
Y020959D01*
X045316Y021072D01*
X045258Y021174D01*
X045174Y021258D01*
X045072Y021316D01*
X044959Y021347D01*
D02*
G37*
G36*
X034077Y020591D02*
X033922D01*
X03377Y020561D01*
X033626Y020501D01*
X033497Y020415D01*
X033388Y020305D01*
X033301Y020177D01*
X033242Y020033D01*
X033212Y019881D01*
Y019726D01*
X033242Y019574D01*
X033301Y019431D01*
X033388Y019302D01*
X033497Y019192D01*
X033626Y019106D01*
X03377Y019046D01*
X033922Y019016D01*
X034077D01*
X034229Y019046D01*
X034372Y019106D01*
X034501Y019192D01*
X034611Y019302D01*
X034697Y019431D01*
X034756Y019574D01*
X034787Y019726D01*
Y019881D01*
X034756Y020033D01*
X034697Y020177D01*
X034611Y020305D01*
X034501Y020415D01*
X034372Y020501D01*
X034229Y020561D01*
X034077Y020591D01*
D02*
G37*
%LPD*%
D46*
X0446Y02735D02*
Y027443D01*
X044738Y02758D01*
Y031512D01*
X04188Y031337D02*
X041893Y03135D01*
X043881Y025719D02*
Y031258D01*
X043789Y03135D02*
X043881Y031258D01*
X041893Y03135D02*
X043789D01*
X036314Y028281D02*
Y028286D01*
X035648Y028952D02*
X036314Y028286D01*
X035648Y028952D02*
Y033302D01*
X036399Y028201D02*
X0412Y0234D01*
X036395Y028201D02*
X036399D01*
X0412Y0234D02*
X042412D01*
X036314Y028281D02*
X036395Y028201D01*
X035148Y029142D02*
X041689Y0226D01*
X035148Y029142D02*
Y032802D01*
X041689Y0226D02*
X0428D01*
X0339Y03405D02*
X035148Y032802D01*
X044478Y031772D02*
X044738Y031512D01*
X04435Y031257D02*
Y03135D01*
X044212Y03112D02*
X04435Y031257D01*
X044212Y026538D02*
Y03112D01*
X043881Y025719D02*
X044339Y025261D01*
X0417Y031772D02*
X044478D01*
X0407D02*
X041135Y031337D01*
X04188D01*
X0405Y03525D02*
X0418D01*
X04215Y0349D01*
X0403Y03465D02*
X040318Y034668D01*
Y035068D01*
X0405Y03525D01*
X041265Y034615D02*
X0413Y03465D01*
X0442Y0202D02*
X0449Y0209D01*
X0422Y0202D02*
X0442D01*
X0349Y03405D02*
X035648Y033302D01*
X04215Y033592D02*
Y0349D01*
X042242Y0335D02*
X0442D01*
X04215Y033592D02*
X042242Y0335D01*
X044689Y025261D02*
X0447Y02525D01*
X044339Y025261D02*
X044689D01*
X0442Y0335D02*
X045Y0327D01*
X04475Y026743D02*
X045Y026993D01*
Y0327D01*
X04475Y02665D02*
Y026743D01*
X044212Y026538D02*
X04475Y026D01*
D47*
X0319Y03405D02*
X032687Y034837D01*
X035351D02*
X035538Y03465D01*
X0383D01*
X032687Y034837D02*
X035351D01*
X0383Y032172D02*
X0387Y031772D01*
X0383Y032172D02*
Y03465D01*
X03165Y0343D02*
X0319Y03405D01*
X029281Y0343D02*
X03165D01*
X02905Y028934D02*
Y034069D01*
X029281Y0343D01*
X028166Y02805D02*
X02905Y028934D01*
D48*
X0387Y031772D02*
D03*
D49*
X0397D02*
D03*
X0407D02*
D03*
X0417D02*
D03*
D50*
X046401Y031496D02*
D03*
X033999D02*
D03*
Y019804D02*
D03*
X046401D02*
D03*
D51*
X027418Y030806D02*
D03*
X030882D02*
D03*
D52*
X028166Y02805D02*
D03*
D53*
X02915D02*
D03*
X030134D02*
D03*
D54*
X045884Y03445D02*
D03*
D55*
X043916D02*
D03*
D56*
X04575Y0261D02*
D03*
D57*
Y0291D02*
D03*
D58*
X0339Y03405D02*
D03*
X0329D02*
D03*
X0349D02*
D03*
X0359D02*
D03*
D59*
X0319D02*
D03*
D60*
X0458Y02255D02*
D03*
Y02355D02*
D03*
Y02455D02*
D03*
D61*
X0413Y03465D02*
D03*
X0403D02*
D03*
X0393D02*
D03*
D62*
X0383D02*
D03*
D63*
X027495Y035521D02*
D03*
X046745Y029371D02*
D03*
X044895Y019521D02*
D03*
X046745Y027221D02*
D03*
Y030121D02*
D03*
Y025371D02*
D03*
X04435Y03135D02*
D03*
X0449Y0209D02*
D03*
X042412Y0234D02*
D03*
X0428Y0226D02*
D03*
X0446Y02735D02*
D03*
X04475Y02665D02*
D03*
X0422Y0202D02*
D03*
X0447Y02525D02*
D03*
X04475Y026D02*
D03*
M02*
