G04*
G04 #@! TF.GenerationSoftware,Altium Limited,Altium Designer,21.3.2 (30)*
G04*
G04 Layer_Color=255*
%FSTAX24Y24*%
%MOIN*%
G70*
G04*
G04 #@! TF.SameCoordinates,EE84E971-A179-45D2-A11A-C0C70DBEE314*
G04*
G04*
G04 #@! TF.FilePolarity,Positive*
G04*
G01*
G75*
%ADD48R,0.0594X0.0594*%
%ADD49C,0.0594*%
%ADD50C,0.1181*%
%ADD51O,0.1378X0.1496*%
%ADD52R,0.0709X0.0709*%
%ADD53C,0.0709*%
%ADD54R,0.0626X0.0626*%
%ADD55C,0.0626*%
%ADD56C,0.0800*%
%ADD57R,0.0800X0.0800*%
%ADD58C,0.0630*%
%ADD59R,0.0630X0.0630*%
%ADD60O,0.1000X0.0660*%
%ADD61C,0.0591*%
%ADD62R,0.0591X0.0591*%
D48*
X0387Y031772D02*
D03*
D49*
X0397D02*
D03*
X0407D02*
D03*
X0417D02*
D03*
D50*
X046401Y031496D02*
D03*
X033999D02*
D03*
Y019804D02*
D03*
X046401D02*
D03*
D51*
X027418Y030806D02*
D03*
X030882D02*
D03*
D52*
X028166Y02805D02*
D03*
D53*
X02915D02*
D03*
X030134D02*
D03*
D54*
X045884Y03445D02*
D03*
D55*
X043916D02*
D03*
D56*
X04575Y0261D02*
D03*
D57*
Y0291D02*
D03*
D58*
X0339Y03405D02*
D03*
X0329D02*
D03*
X0349D02*
D03*
X0359D02*
D03*
D59*
X0319D02*
D03*
D60*
X0458Y02255D02*
D03*
Y02355D02*
D03*
Y02455D02*
D03*
D61*
X0413Y03465D02*
D03*
X0403D02*
D03*
X0393D02*
D03*
D62*
X0383D02*
D03*
M02*
