G04*
G04 #@! TF.GenerationSoftware,Altium Limited,Altium Designer,21.3.2 (30)*
G04*
G04 Layer_Physical_Order=1*
G04 Layer_Color=255*
%FSTAX24Y24*%
%MOIN*%
G70*
G04*
G04 #@! TF.SameCoordinates,EE84E971-A179-45D2-A11A-C0C70DBEE314*
G04*
G04*
G04 #@! TF.FilePolarity,Positive*
G04*
G01*
G75*
%ADD17R,0.1575X0.1575*%
G04:AMPARAMS|DCode=18|XSize=66.9mil|YSize=35.4mil|CornerRadius=3.9mil|HoleSize=0mil|Usage=FLASHONLY|Rotation=0.000|XOffset=0mil|YOffset=0mil|HoleType=Round|Shape=RoundedRectangle|*
%AMROUNDEDRECTD18*
21,1,0.0669,0.0276,0,0,0.0*
21,1,0.0591,0.0354,0,0,0.0*
1,1,0.0078,0.0296,-0.0138*
1,1,0.0078,-0.0296,-0.0138*
1,1,0.0078,-0.0296,0.0138*
1,1,0.0078,0.0296,0.0138*
%
%ADD18ROUNDEDRECTD18*%
G04:AMPARAMS|DCode=19|XSize=66.9mil|YSize=35.4mil|CornerRadius=3.9mil|HoleSize=0mil|Usage=FLASHONLY|Rotation=90.000|XOffset=0mil|YOffset=0mil|HoleType=Round|Shape=RoundedRectangle|*
%AMROUNDEDRECTD19*
21,1,0.0669,0.0276,0,0,90.0*
21,1,0.0591,0.0354,0,0,90.0*
1,1,0.0078,0.0138,0.0296*
1,1,0.0078,0.0138,-0.0296*
1,1,0.0078,-0.0138,-0.0296*
1,1,0.0078,-0.0138,0.0296*
%
%ADD19ROUNDEDRECTD19*%
%ADD20R,0.1181X0.0787*%
%ADD21R,0.0472X0.0551*%
%ADD22R,0.0551X0.0472*%
%ADD46C,0.0157*%
%ADD47C,0.0394*%
%ADD48R,0.0594X0.0594*%
%ADD49C,0.0594*%
%ADD50C,0.1181*%
%ADD51O,0.1378X0.1496*%
%ADD52R,0.0709X0.0709*%
%ADD53C,0.0709*%
%ADD54R,0.0626X0.0626*%
%ADD55C,0.0626*%
%ADD56C,0.0800*%
%ADD57R,0.0800X0.0800*%
%ADD58C,0.0630*%
%ADD59R,0.0630X0.0630*%
%ADD60O,0.1000X0.0660*%
%ADD61C,0.0591*%
%ADD62R,0.0591X0.0591*%
%ADD63C,0.0500*%
G36*
X047203Y031748D02*
X047153Y031738D01*
X047099Y031869D01*
X047012Y031998D01*
X046903Y032108D01*
X046774Y032194D01*
X04663Y032254D01*
X046478Y032284D01*
X046323D01*
X046171Y032254D01*
X046028Y032194D01*
X045899Y032108D01*
X045843Y032053D01*
X045797Y032072D01*
Y033801D01*
X045936Y03394D01*
X046394D01*
Y03496D01*
X045936D01*
X044915Y035981D01*
X044833Y036044D01*
X044737Y036084D01*
X044634Y036097D01*
X03935D01*
X039247Y036084D01*
X039151Y036044D01*
X039069Y035981D01*
X038231Y035142D01*
X037808D01*
Y034158D01*
X038792D01*
Y034581D01*
X039514Y035303D01*
X04447D01*
X045323Y03445D01*
X045119Y034247D01*
X045056Y034164D01*
X045016Y034069D01*
X045006Y033992D01*
X044954Y033974D01*
X044426Y034502D01*
Y034517D01*
X044391Y034647D01*
X044324Y034763D01*
X044229Y034858D01*
X044113Y034925D01*
X043983Y03496D01*
X043849D01*
X043719Y034925D01*
X043603Y034858D01*
X043508Y034763D01*
X043441Y034647D01*
X043406Y034517D01*
Y034383D01*
X043441Y034253D01*
X043508Y034137D01*
X043603Y034042D01*
X043719Y033975D01*
X043849Y03394D01*
X043864D01*
X044459Y033345D01*
Y032556D01*
X044451Y032549D01*
X044409Y032534D01*
X042097Y034847D01*
X042039Y034891D01*
X041972Y034918D01*
X0419Y034928D01*
X041708D01*
X041694Y034952D01*
X041602Y035044D01*
X04149Y035109D01*
X041365Y035142D01*
X041235D01*
X04111Y035109D01*
X040998Y035044D01*
X040906Y034952D01*
X040841Y03484D01*
X040826Y034782D01*
X040774D01*
X040759Y03484D01*
X040694Y034952D01*
X040602Y035044D01*
X04049Y035109D01*
X040365Y035142D01*
X040235D01*
X04011Y035109D01*
X039998Y035044D01*
X039906Y034952D01*
X039841Y03484D01*
X039808Y034715D01*
Y034585D01*
X039841Y03446D01*
X039906Y034348D01*
X039998Y034256D01*
X04011Y034191D01*
X040235Y034158D01*
X040365D01*
X04049Y034191D01*
X040602Y034256D01*
X040694Y034348D01*
X040759Y03446D01*
X040774Y034518D01*
X040826D01*
X040841Y03446D01*
X040906Y034348D01*
X040998Y034256D01*
X04111Y034191D01*
X041235Y034158D01*
X041365D01*
X04149Y034191D01*
X041602Y034256D01*
X041694Y034348D01*
X041708Y034372D01*
X041785D01*
X044053Y032103D01*
X044072Y032089D01*
Y031704D01*
X043992Y031624D01*
X043934Y031522D01*
X043903Y031409D01*
Y031291D01*
X043934Y031178D01*
X043992Y031076D01*
X044076Y030992D01*
X044178Y030934D01*
X044291Y030903D01*
X044409D01*
X044419Y030906D01*
X044459Y030875D01*
Y028832D01*
X044472Y028729D01*
X044512Y028634D01*
X044575Y028551D01*
X045203Y027924D01*
Y026859D01*
X045153Y026846D01*
X045108Y026924D01*
X045024Y027008D01*
X044979Y027034D01*
X04497Y027097D01*
X045016Y027178D01*
X045047Y027291D01*
Y027409D01*
X045016Y027522D01*
X044958Y027624D01*
X044874Y027708D01*
X044772Y027766D01*
X044659Y027797D01*
X044541D01*
X044428Y027766D01*
X044326Y027708D01*
X044242Y027624D01*
X044184Y027522D01*
X044153Y027409D01*
Y027325D01*
X044109Y027282D01*
X044095Y027283D01*
X044064Y027326D01*
X044079Y027402D01*
Y027679D01*
X044061Y027771D01*
X044009Y027849D01*
X043931Y027901D01*
X043839Y027919D01*
X043248D01*
X043156Y027901D01*
X043078Y027849D01*
X043025Y027771D01*
X043007Y027679D01*
Y027402D01*
X043025Y02731D01*
X043039Y027291D01*
X043025Y027271D01*
X043007Y027179D01*
Y026902D01*
X043025Y02681D01*
X043039Y026791D01*
X043025Y026771D01*
X043007Y026679D01*
Y026402D01*
X043025Y02631D01*
X043039Y026291D01*
X043025Y026271D01*
X043007Y026179D01*
Y025902D01*
X043025Y02581D01*
X043039Y025791D01*
X043025Y025771D01*
X043007Y025679D01*
Y025402D01*
X043025Y02531D01*
X043039Y025291D01*
X043025Y025271D01*
X043007Y025179D01*
Y024902D01*
X043025Y02481D01*
X043039Y024791D01*
X043025Y024771D01*
X043007Y024679D01*
Y024402D01*
X043025Y02431D01*
X043039Y024291D01*
X043025Y024271D01*
X043007Y024179D01*
Y023902D01*
X043025Y02381D01*
X043039Y023791D01*
X043025Y023771D01*
X043007Y023679D01*
Y023402D01*
X043019Y023345D01*
X042972Y023321D01*
X042859Y023434D01*
Y023459D01*
X042829Y023572D01*
X04277Y023674D01*
X042687Y023758D01*
X042585Y023816D01*
X042471Y023847D01*
X042353D01*
X04224Y023816D01*
X042138Y023758D01*
X042055Y023674D01*
X041996Y023572D01*
X041965Y023459D01*
Y023341D01*
X041996Y023228D01*
X042055Y023126D01*
X042138Y023042D01*
X04224Y022984D01*
X042353Y022953D01*
X04245D01*
X042471Y022903D01*
X042442Y022874D01*
X042384Y022772D01*
X042353Y022659D01*
Y022541D01*
X042384Y022428D01*
X042442Y022326D01*
X042526Y022242D01*
X042628Y022184D01*
X042741Y022153D01*
X042859D01*
X042958Y02218D01*
X042996Y022158D01*
X043007Y022146D01*
Y021902D01*
X043025Y02181D01*
X043039Y021791D01*
X043025Y021771D01*
X043007Y021679D01*
Y021402D01*
X043025Y02131D01*
X043078Y021232D01*
X043156Y02118D01*
X043208Y02117D01*
Y019354D01*
X034699D01*
X034675Y019398D01*
X034697Y019431D01*
X034756Y019574D01*
X034787Y019726D01*
Y019881D01*
X034756Y020033D01*
X034697Y020177D01*
X034611Y020305D01*
X034501Y020415D01*
X034372Y020501D01*
X034229Y020561D01*
X034077Y020591D01*
X033922D01*
X03377Y020561D01*
X033626Y020501D01*
X033497Y020415D01*
X033388Y020305D01*
X033301Y020177D01*
X033242Y020033D01*
X033212Y019881D01*
Y019822D01*
X033166Y019803D01*
X031655Y021313D01*
Y021696D01*
X031397D01*
Y021809D01*
X031787D01*
Y022991D01*
X030213D01*
Y021809D01*
X030603D01*
Y021696D01*
X030041D01*
Y021621D01*
X028797D01*
Y026791D01*
X028847Y026816D01*
X028893Y02678D01*
X028989Y026741D01*
X029091Y026727D01*
X032876D01*
Y026691D01*
X03326D01*
X033341Y026609D01*
Y026265D01*
X033345Y02624D01*
Y025847D01*
X032212D01*
Y026041D01*
X030637D01*
Y026041D01*
X030587Y026041D01*
X029063D01*
Y024859D01*
X029978D01*
X030581Y024257D01*
X030583Y024244D01*
X030622Y024148D01*
X030686Y024066D01*
X030789Y023962D01*
Y023579D01*
X031655D01*
Y024524D01*
X031352D01*
X03135Y024536D01*
X03131Y024631D01*
X031247Y024714D01*
X031148Y024813D01*
X031167Y024859D01*
X032212D01*
Y025053D01*
X033875D01*
X033978Y025066D01*
X034074Y025106D01*
X034156Y025169D01*
X034741Y025754D01*
X034959D01*
Y025829D01*
X035476D01*
X035579Y025842D01*
X035675Y025882D01*
X035757Y025945D01*
X035874Y026063D01*
X035921Y026044D01*
Y025902D01*
X035939Y02581D01*
X035952Y025791D01*
X035939Y025771D01*
X035921Y025679D01*
Y025402D01*
X035939Y02531D01*
X035952Y025291D01*
X035939Y025271D01*
X035921Y025179D01*
Y024902D01*
X035939Y02481D01*
X035952Y024791D01*
X035939Y024771D01*
X035921Y024679D01*
Y024402D01*
X035939Y02431D01*
X035952Y024291D01*
X035939Y024271D01*
X035921Y024179D01*
Y023902D01*
X035939Y02381D01*
X035952Y023791D01*
X035939Y023771D01*
X035921Y023679D01*
Y023402D01*
X035939Y02331D01*
X035952Y023291D01*
X035939Y023271D01*
X035921Y023179D01*
Y022902D01*
X035939Y02281D01*
X035952Y022791D01*
X035939Y022771D01*
X035921Y022679D01*
Y022402D01*
X035939Y02231D01*
X035952Y022291D01*
X035939Y022271D01*
X035921Y022179D01*
Y021902D01*
X035939Y02181D01*
X035952Y021791D01*
X035939Y021771D01*
X035921Y021679D01*
Y021402D01*
X035939Y02131D01*
X035991Y021232D01*
X036069Y02118D01*
X036161Y021162D01*
X036752D01*
X036844Y02118D01*
X036922Y021232D01*
X036974Y02131D01*
X036993Y021402D01*
Y021679D01*
X036974Y021771D01*
X036961Y021791D01*
X036974Y02181D01*
X036993Y021902D01*
Y022179D01*
X036974Y022271D01*
X036961Y022291D01*
X036974Y02231D01*
X036993Y022402D01*
Y022679D01*
X036974Y022771D01*
X036961Y022791D01*
X036974Y02281D01*
X036993Y022902D01*
Y023179D01*
X036974Y023271D01*
X036961Y023291D01*
X036974Y02331D01*
X036993Y023402D01*
Y023679D01*
X036974Y023771D01*
X036961Y023791D01*
X036974Y02381D01*
X036993Y023902D01*
Y024179D01*
X036974Y024271D01*
X036961Y024291D01*
X036974Y02431D01*
X036993Y024402D01*
Y024679D01*
X036974Y024771D01*
X036961Y024791D01*
X036974Y02481D01*
X036993Y024902D01*
Y025179D01*
X036974Y025271D01*
X036961Y025291D01*
X036974Y02531D01*
X036993Y025402D01*
Y025679D01*
X036974Y025771D01*
X036961Y025791D01*
X036974Y02581D01*
X036993Y025902D01*
Y026179D01*
X036974Y026271D01*
X036961Y026291D01*
X036974Y02631D01*
X036993Y026402D01*
Y026679D01*
X036974Y026771D01*
X036961Y026791D01*
X036974Y02681D01*
X036993Y026902D01*
Y027179D01*
X036974Y027271D01*
X036961Y027291D01*
X036974Y02731D01*
X036993Y027402D01*
Y027679D01*
X036974Y027771D01*
X036922Y027849D01*
X036844Y027901D01*
X036752Y027919D01*
X036571D01*
X036559Y027924D01*
X036457Y027938D01*
X036354Y027924D01*
X036342Y027919D01*
X036161D01*
X036155Y027918D01*
X035782D01*
X035679Y027904D01*
X035583Y027865D01*
X035501Y027802D01*
X03526Y027561D01*
X035227D01*
X035202Y027557D01*
X032876D01*
Y027521D01*
X029437D01*
X029423Y027571D01*
X029488Y027609D01*
X029591Y027712D01*
X029664Y027837D01*
X029701Y027977D01*
Y028123D01*
X029664Y028263D01*
X029591Y028388D01*
X029547Y028432D01*
Y034736D01*
X030164Y035353D01*
X035305D01*
X035503Y035155D01*
Y034377D01*
X03549Y034364D01*
X035427Y034254D01*
X0354Y034251D01*
X035373Y034254D01*
X03531Y034364D01*
X035214Y03446D01*
X035098Y034527D01*
X034967Y034562D01*
X034833D01*
X034702Y034527D01*
X034586Y03446D01*
X03449Y034364D01*
X034427Y034254D01*
X0344Y034251D01*
X034373Y034254D01*
X03431Y034364D01*
X034214Y03446D01*
X034098Y034527D01*
X033967Y034562D01*
X033833D01*
X033702Y034527D01*
X033586Y03446D01*
X03349Y034364D01*
X033423Y034248D01*
X033388Y034117D01*
Y033983D01*
X033423Y033852D01*
X03349Y033736D01*
X033586Y03364D01*
X033702Y033573D01*
X033833Y033538D01*
X033967D01*
X034098Y033573D01*
X034214Y03364D01*
X03431Y033736D01*
X034373Y033846D01*
X0344Y033849D01*
X034427Y033846D01*
X03449Y033736D01*
X034586Y03364D01*
X034702Y033573D01*
X034833Y033538D01*
X034967D01*
X035098Y033573D01*
X035214Y03364D01*
X03531Y033736D01*
X035373Y033846D01*
X0354Y033849D01*
X035427Y033846D01*
X03549Y033736D01*
X035586Y03364D01*
X035702Y033573D01*
X035833Y033538D01*
X035967D01*
X036098Y033573D01*
X036214Y03364D01*
X03631Y033736D01*
X036377Y033852D01*
X036412Y033983D01*
Y034117D01*
X036377Y034248D01*
X03631Y034364D01*
X036297Y034377D01*
Y035319D01*
X036284Y035422D01*
X036244Y035518D01*
X036181Y0356D01*
X03575Y036031D01*
X035668Y036094D01*
X035572Y036134D01*
X035469Y036147D01*
X03D01*
X029897Y036134D01*
X029801Y036094D01*
X029719Y036031D01*
X028869Y035181D01*
X028806Y035099D01*
X028766Y035003D01*
X028753Y0349D01*
Y028635D01*
X028717Y028601D01*
X027615D01*
Y027499D01*
X028003D01*
Y021455D01*
X028016Y021352D01*
X028056Y021256D01*
X028119Y021174D01*
X02835Y020943D01*
X028432Y02088D01*
X028528Y02084D01*
X028631Y020827D01*
X030041D01*
Y020752D01*
X031094D01*
X033169Y018676D01*
X033207Y018647D01*
X03319Y018597D01*
X026597D01*
Y036453D01*
X047203D01*
Y031748D01*
D02*
G37*
G36*
Y031245D02*
Y023114D01*
X047158Y02309D01*
X047153Y02309D01*
X047092Y02317D01*
X046814Y023448D01*
X046731Y023511D01*
X046636Y023551D01*
X046598Y023556D01*
X046486Y023668D01*
X046483Y023688D01*
X04643Y023816D01*
X046346Y023926D01*
X046236Y02401D01*
X0462Y024025D01*
Y024075D01*
X046236Y02409D01*
X046346Y024174D01*
X04643Y024284D01*
X046483Y024412D01*
X046501Y02455D01*
X046483Y024688D01*
X04643Y024816D01*
X046346Y024926D01*
X046236Y02501D01*
X046172Y025037D01*
Y025678D01*
X046214Y02572D01*
X046279Y025817D01*
X046324Y025926D01*
X046347Y026041D01*
Y026159D01*
X046324Y026274D01*
X046279Y026383D01*
X046214Y02648D01*
X04613Y026564D01*
X046033Y026629D01*
X046028Y026631D01*
X046016Y02666D01*
X045997Y026685D01*
Y028088D01*
X045984Y028191D01*
X045944Y028287D01*
X045881Y028369D01*
X045793Y028457D01*
X045812Y028503D01*
X046347D01*
Y029697D01*
X045797D01*
Y030921D01*
X045843Y03094D01*
X045899Y030885D01*
X046028Y030799D01*
X046171Y030739D01*
X046323Y030709D01*
X046478D01*
X04663Y030739D01*
X046774Y030799D01*
X046903Y030885D01*
X047012Y030995D01*
X047099Y031123D01*
X047153Y031255D01*
X047203Y031245D01*
D02*
G37*
G36*
X045221Y025817D02*
X045286Y02572D01*
X04537Y025636D01*
X045378Y025631D01*
Y025016D01*
X045364Y02501D01*
X045254Y024926D01*
X04517Y024816D01*
X045117Y024688D01*
X045099Y02455D01*
X045117Y024412D01*
X04517Y024284D01*
X045254Y024174D01*
X045364Y02409D01*
X0454Y024075D01*
Y024025D01*
X045364Y02401D01*
X045254Y023926D01*
X04517Y023816D01*
X045117Y023688D01*
X045099Y02355D01*
X045117Y023412D01*
X04517Y023284D01*
X045254Y023174D01*
X045364Y02309D01*
X045492Y023037D01*
X04563Y023019D01*
X04597D01*
X046007Y023023D01*
X046144Y022886D01*
X046226Y022823D01*
X046322Y022784D01*
X04636Y022779D01*
X046413Y022726D01*
X046048Y022361D01*
X046024D01*
X045922Y022348D01*
X045826Y022308D01*
X045744Y022245D01*
X045547Y022048D01*
X044495D01*
Y021104D01*
X044495Y021104D01*
X044495D01*
X044488Y021084D01*
X044484Y021072D01*
X04448Y021058D01*
X044453Y020959D01*
Y020841D01*
X044484Y020728D01*
X044542Y020626D01*
X044626Y020542D01*
X044728Y020484D01*
X044841Y020453D01*
X044959D01*
X045072Y020484D01*
X045174Y020542D01*
X045258Y020626D01*
X045316Y020728D01*
X045347Y020841D01*
Y020959D01*
X045321Y021054D01*
X045351Y021104D01*
X046109D01*
Y021487D01*
X046189Y021567D01*
X046213D01*
X046315Y021581D01*
X046411Y02162D01*
X046493Y021683D01*
X047092Y022282D01*
X047153Y022361D01*
X047158Y022361D01*
X047203Y022337D01*
Y020055D01*
X047153Y020045D01*
X047099Y020177D01*
X047012Y020305D01*
X046903Y020415D01*
X046774Y020501D01*
X04663Y020561D01*
X046478Y020591D01*
X046323D01*
X046171Y020561D01*
X046028Y020501D01*
X045899Y020415D01*
X045789Y020305D01*
X045703Y020177D01*
X045644Y020033D01*
X045613Y019881D01*
Y019726D01*
X045644Y019574D01*
X045703Y019431D01*
X045789Y019302D01*
X045899Y019192D01*
X046028Y019106D01*
X046171Y019046D01*
X046323Y019016D01*
X046478D01*
X04663Y019046D01*
X046774Y019106D01*
X046903Y019192D01*
X047012Y019302D01*
X047099Y019431D01*
X047153Y019562D01*
X047203Y019552D01*
Y018597D01*
X043635D01*
X043618Y018647D01*
X043656Y018676D01*
X043886Y018907D01*
X043949Y018989D01*
X043989Y019085D01*
X044003Y019188D01*
Y021228D01*
X044009Y021232D01*
X044061Y02131D01*
X044079Y021402D01*
Y021679D01*
X044061Y021771D01*
X044048Y021791D01*
X044061Y02181D01*
X044079Y021902D01*
Y022179D01*
X044061Y022271D01*
X044048Y022291D01*
X044061Y02231D01*
X044079Y022402D01*
Y022679D01*
X044061Y022771D01*
X044048Y022791D01*
X044061Y02281D01*
X044079Y022902D01*
Y023179D01*
X044061Y023271D01*
X044048Y023291D01*
X044061Y02331D01*
X044079Y023402D01*
Y023679D01*
X044061Y023771D01*
X044048Y023791D01*
X044061Y02381D01*
X044079Y023902D01*
Y024179D01*
X044061Y024271D01*
X044048Y024291D01*
X044061Y02431D01*
X044079Y024402D01*
Y024679D01*
X044061Y024771D01*
X044048Y024791D01*
X044061Y02481D01*
X044079Y024902D01*
Y025179D01*
X044107Y025213D01*
X044252D01*
X044253Y025211D01*
Y025191D01*
X044284Y025078D01*
X044342Y024976D01*
X044426Y024892D01*
X044528Y024834D01*
X044641Y024803D01*
X044759D01*
X044872Y024834D01*
X044974Y024892D01*
X045058Y024976D01*
X045116Y025078D01*
X045147Y025191D01*
Y025309D01*
X045116Y025422D01*
X045058Y025524D01*
X045007Y025575D01*
X045015Y025637D01*
X045024Y025642D01*
X045108Y025726D01*
X045164Y025824D01*
X045188Y025829D01*
X045216Y025831D01*
X045221Y025817D01*
D02*
G37*
%LPC*%
G36*
X032412Y034562D02*
X031388D01*
Y033538D01*
X032412D01*
Y034562D01*
D02*
G37*
G36*
X041765Y032266D02*
X041635D01*
X041509Y032232D01*
X041397Y032167D01*
X041305Y032075D01*
X04124Y031963D01*
X041226Y03191D01*
X041174D01*
X04116Y031963D01*
X041095Y032075D01*
X041003Y032167D01*
X040891Y032232D01*
X040765Y032266D01*
X040635D01*
X040509Y032232D01*
X040397Y032167D01*
X040305Y032075D01*
X04024Y031963D01*
X040206Y031837D01*
Y031707D01*
X04024Y031581D01*
X040305Y031469D01*
X040397Y031377D01*
X040509Y031312D01*
X040635Y031278D01*
X040765D01*
X040891Y031312D01*
X041003Y031377D01*
X041095Y031469D01*
X04116Y031581D01*
X041174Y031634D01*
X041226D01*
X04124Y031581D01*
X041305Y031469D01*
X041397Y031377D01*
X041509Y031312D01*
X041635Y031278D01*
X041765D01*
X041891Y031312D01*
X042003Y031377D01*
X042095Y031469D01*
X04216Y031581D01*
X042194Y031707D01*
Y031837D01*
X04216Y031963D01*
X042095Y032075D01*
X042003Y032167D01*
X041891Y032232D01*
X041765Y032266D01*
D02*
G37*
G36*
X039194D02*
X038206D01*
Y031278D01*
X039194D01*
Y032266D01*
D02*
G37*
G36*
X034077Y032284D02*
X033922D01*
X03377Y032254D01*
X033626Y032194D01*
X033497Y032108D01*
X033388Y031998D01*
X033301Y031869D01*
X033242Y031726D01*
X033212Y031574D01*
Y031419D01*
X033242Y031267D01*
X033301Y031123D01*
X033388Y030995D01*
X033497Y030885D01*
X033626Y030799D01*
X03377Y030739D01*
X033922Y030709D01*
X034077D01*
X034229Y030739D01*
X034372Y030799D01*
X034501Y030885D01*
X034611Y030995D01*
X034697Y031123D01*
X034756Y031267D01*
X034787Y031419D01*
Y031574D01*
X034756Y031726D01*
X034697Y031869D01*
X034611Y031998D01*
X034501Y032108D01*
X034372Y032194D01*
X034229Y032254D01*
X034077Y032284D01*
D02*
G37*
G36*
X043543Y031192D02*
X036452D01*
X036375Y031177D01*
X03631Y031133D01*
X036267Y031068D01*
X036251Y030991D01*
Y028338D01*
X036267Y028262D01*
X03631Y028197D01*
X036375Y028153D01*
X036452Y028138D01*
X043543D01*
X04362Y028153D01*
X043685Y028197D01*
X043729Y028262D01*
X043744Y028338D01*
Y030991D01*
X043729Y031068D01*
X043685Y031133D01*
X04362Y031177D01*
X043543Y031192D01*
D02*
G37*
G36*
X042388Y021486D02*
X042112D01*
X04202Y021468D01*
X042Y021455D01*
X04198Y021468D01*
X041888Y021486D01*
X041612D01*
X04152Y021468D01*
X0415Y021455D01*
X04148Y021468D01*
X041388Y021486D01*
X041112D01*
X04102Y021468D01*
X041Y021455D01*
X04098Y021468D01*
X040888Y021486D01*
X040612D01*
X04052Y021468D01*
X0405Y021455D01*
X04048Y021468D01*
X040388Y021486D01*
X040112D01*
X04002Y021468D01*
X04Y021455D01*
X03998Y021468D01*
X039888Y021486D01*
X039612D01*
X03952Y021468D01*
X0395Y021455D01*
X03948Y021468D01*
X039388Y021486D01*
X039112D01*
X03902Y021468D01*
X039Y021455D01*
X03898Y021468D01*
X038888Y021486D01*
X038612D01*
X03852Y021468D01*
X0385Y021455D01*
X03848Y021468D01*
X038388Y021486D01*
X038112D01*
X03802Y021468D01*
X037942Y021416D01*
X03789Y021338D01*
X037871Y021246D01*
Y020654D01*
X03789Y020562D01*
X037942Y020484D01*
X03802Y020432D01*
X038112Y020414D01*
X038388D01*
X03848Y020432D01*
X0385Y020445D01*
X03852Y020432D01*
X038612Y020414D01*
X038888D01*
X03898Y020432D01*
X039Y020445D01*
X03902Y020432D01*
X039112Y020414D01*
X039388D01*
X03948Y020432D01*
X0395Y020445D01*
X03952Y020432D01*
X039612Y020414D01*
X039888D01*
X03998Y020432D01*
X04Y020445D01*
X04002Y020432D01*
X040112Y020414D01*
X040388D01*
X04048Y020432D01*
X0405Y020445D01*
X04052Y020432D01*
X040612Y020414D01*
X040888D01*
X04098Y020432D01*
X041Y020445D01*
X04102Y020432D01*
X041112Y020414D01*
X041388D01*
X041472Y020431D01*
X041501Y020416D01*
X041522Y0204D01*
Y020357D01*
X041532Y020285D01*
X041559Y020218D01*
X041603Y020161D01*
X041696Y020068D01*
X041753Y020024D01*
X041796Y020007D01*
X041842Y019926D01*
X041926Y019842D01*
X042028Y019784D01*
X042141Y019753D01*
X042259D01*
X042372Y019784D01*
X042474Y019842D01*
X042558Y019926D01*
X042616Y020028D01*
X042647Y020141D01*
Y020259D01*
X042616Y020372D01*
X042558Y020474D01*
X042557Y020475D01*
X042558Y020484D01*
X04261Y020562D01*
X042629Y020654D01*
Y021246D01*
X04261Y021338D01*
X042558Y021416D01*
X04248Y021468D01*
X042388Y021486D01*
D02*
G37*
%LPD*%
D17*
X039724Y025123D02*
D03*
D18*
X036457Y028041D02*
D03*
Y027541D02*
D03*
Y027041D02*
D03*
Y026541D02*
D03*
Y026041D02*
D03*
Y025541D02*
D03*
Y025041D02*
D03*
Y024541D02*
D03*
Y024041D02*
D03*
Y023541D02*
D03*
Y023041D02*
D03*
Y022541D02*
D03*
Y022041D02*
D03*
Y021541D02*
D03*
X043543D02*
D03*
Y022041D02*
D03*
Y022541D02*
D03*
Y023041D02*
D03*
Y023541D02*
D03*
Y024041D02*
D03*
Y024541D02*
D03*
Y025041D02*
D03*
Y025541D02*
D03*
Y026041D02*
D03*
Y026541D02*
D03*
Y027041D02*
D03*
Y027541D02*
D03*
Y028041D02*
D03*
D19*
X03775Y02095D02*
D03*
X03825D02*
D03*
X03875D02*
D03*
X03925D02*
D03*
X03975D02*
D03*
X04025D02*
D03*
X04075D02*
D03*
X04125D02*
D03*
X04175D02*
D03*
X04225D02*
D03*
D20*
X031Y0224D02*
D03*
X029425D02*
D03*
X02985Y02545D02*
D03*
X031425D02*
D03*
D21*
X034526Y026226D02*
D03*
X044928Y021576D02*
D03*
X045676D02*
D03*
X030474Y024051D02*
D03*
X031222D02*
D03*
X030474Y021224D02*
D03*
X031222D02*
D03*
X033778Y026226D02*
D03*
D22*
X033349Y027124D02*
D03*
Y027872D02*
D03*
X034249Y027124D02*
D03*
Y027872D02*
D03*
X035149Y027124D02*
D03*
Y027872D02*
D03*
D46*
X0425Y0234D02*
X04285Y02305D01*
X043534D01*
X043543Y023041D01*
X0413Y03465D02*
X0419D01*
X04425Y0323D02*
X044258D01*
X04435Y03135D02*
Y032208D01*
X0419Y03465D02*
X04425Y0323D01*
X044258D02*
X04435Y032208D01*
X0449Y0209D02*
Y021548D01*
X044928Y021576D01*
X042855Y022545D02*
X043689D01*
X042412Y0234D02*
X0425D01*
X0428Y0226D02*
X042855Y022545D01*
X043689D02*
X043743Y022491D01*
X04175Y02095D02*
X0418Y0209D01*
Y020357D02*
X041892Y020265D01*
X042135D01*
X0422Y0202D01*
X0418Y020357D02*
Y0209D01*
X044241Y026991D02*
X0446Y02735D01*
X043743Y026991D02*
X044241D01*
X044657Y02665D02*
X04475D01*
X044498Y026491D02*
X044657Y02665D01*
X043743Y026491D02*
X044498D01*
X043743Y025491D02*
X044367D01*
X044607Y02525D01*
X0447D01*
X043743Y025991D02*
X043748Y025995D01*
X044745D01*
X04475Y026D01*
D47*
X035276Y026226D02*
X036071Y027021D01*
X034526Y026226D02*
X035276D01*
X036071Y027021D02*
X036437D01*
X0454Y02945D02*
X04575Y0291D01*
X0454Y02945D02*
Y033966D01*
X045884Y03445D01*
X0383Y03465D02*
X03935Y0357D01*
X044634D01*
X045884Y03445D01*
X028631Y021224D02*
X030474D01*
X0284Y021455D02*
Y027816D01*
X028166Y02805D02*
X0284Y027816D01*
Y021455D02*
X028631Y021224D01*
X0284Y027816D02*
X029091Y027124D01*
X033438Y027074D02*
X035199D01*
X044856Y028832D02*
Y03351D01*
Y028832D02*
X0456Y028088D01*
X043916Y03445D02*
X044856Y03351D01*
X029091Y027124D02*
X033349D01*
X036437Y027021D02*
X036457Y027041D01*
X036437Y027521D02*
X036457Y027541D01*
X035782Y027521D02*
X036437D01*
X035461Y0272D02*
X035782Y027521D01*
X035199Y027135D02*
X035227Y027164D01*
X035421D02*
X035458Y0272D01*
X035199Y027074D02*
Y027135D01*
X035458Y0272D02*
X035461D01*
X035227Y027164D02*
X035421D01*
X0456Y026534D02*
X045672Y026462D01*
Y026178D02*
X045775Y026075D01*
X0456Y026534D02*
Y028088D01*
X045672Y026178D02*
Y026462D01*
X0359Y03405D02*
Y035319D01*
X03Y03575D02*
X035469D01*
X0359Y035319D01*
X02915Y0349D02*
X03Y03575D01*
X02915Y02805D02*
Y0349D01*
X045775Y024575D02*
X0458Y02455D01*
X045775Y024575D02*
Y026075D01*
X046042Y02355D02*
X046425Y023167D01*
X046533D01*
X046213Y021964D02*
X046811Y022563D01*
X0458Y02355D02*
X046042D01*
X046533Y023167D02*
X046811Y022889D01*
Y022563D02*
Y022889D01*
X046024Y021964D02*
X046213D01*
X045676Y021576D02*
Y021615D01*
X046024Y021964D01*
X043375Y018957D02*
X043606Y019188D01*
Y021471D01*
X03345Y018957D02*
X043375D01*
X031222Y021185D02*
X03345Y018957D01*
X031222Y021185D02*
Y021224D01*
X031Y021486D02*
X031222Y021263D01*
Y021224D02*
Y021263D01*
X031Y021486D02*
Y0224D01*
X030966Y024347D02*
X031222Y024091D01*
X02985Y02545D02*
X030047D01*
X031222Y024051D02*
Y024091D01*
X030966Y024347D02*
Y024433D01*
X030244Y025156D02*
X030966Y024433D01*
X030244Y025156D02*
Y025253D01*
X030047Y02545D02*
X030244Y025253D01*
X033438Y027074D02*
X033738Y026774D01*
Y026265D02*
X033778Y026226D01*
X033738Y026265D02*
Y026774D01*
X034486Y026187D02*
X034526Y026226D01*
X031425Y02545D02*
X033875D01*
X034486Y026061D01*
Y026187D01*
D48*
X0387Y031772D02*
D03*
D49*
X0397D02*
D03*
X0407D02*
D03*
X0417D02*
D03*
D50*
X046401Y031496D02*
D03*
X033999D02*
D03*
Y019804D02*
D03*
X046401D02*
D03*
D51*
X027418Y030806D02*
D03*
X030882D02*
D03*
D52*
X028166Y02805D02*
D03*
D53*
X02915D02*
D03*
X030134D02*
D03*
D54*
X045884Y03445D02*
D03*
D55*
X043916D02*
D03*
D56*
X04575Y0261D02*
D03*
D57*
Y0291D02*
D03*
D58*
X0339Y03405D02*
D03*
X0329D02*
D03*
X0349D02*
D03*
X0359D02*
D03*
D59*
X0319D02*
D03*
D60*
X0458Y02255D02*
D03*
Y02355D02*
D03*
Y02455D02*
D03*
D61*
X0413Y03465D02*
D03*
X0403D02*
D03*
X0393D02*
D03*
D62*
X0383D02*
D03*
D63*
X027495Y035521D02*
D03*
X046745Y029371D02*
D03*
X044895Y019521D02*
D03*
X046745Y027221D02*
D03*
Y030121D02*
D03*
Y025371D02*
D03*
X04435Y03135D02*
D03*
X0449Y0209D02*
D03*
X042412Y0234D02*
D03*
X0428Y0226D02*
D03*
X0446Y02735D02*
D03*
X04475Y02665D02*
D03*
X0422Y0202D02*
D03*
X0447Y02525D02*
D03*
X04475Y026D02*
D03*
M02*
