M48
;Layer_Color=9474304
;FILE_FORMAT=2:4
INCH,LZ
;TYPE=PLATED
T1F00S00C0.0280
T2F00S00C0.0315
T3F00S00C0.0320
T4F00S00C0.0350
T5F00S00C0.0354
T6F00S00C0.0394
T7F00S00C0.0417
T8F00S00C0.0472
;TYPE=NON_PLATED
T10F00S00C0.1181
%
T01
X0422Y0202
X0428Y0226
X042412Y0234
X0447Y02525
X04475Y026
Y02665
X0446Y02735
X046745Y027221
Y025371
Y029371
Y030121
X0449Y0209
X044895Y019521
X027495Y035521
X04435Y03135
T02
X0319Y03405
X0329
X0339
X0349
X0359
T03
X0458Y02255
Y02355
Y02455
T04
X04575Y0261
Y0291
T05
X0383Y03465
X0393
X0403
X0413
T06
X0387Y031772
X0397
X0407
X0417
T07
X043916Y03445
X045884
T08
X028166Y02805
X02915
X030134
T10
X033999Y019804
X046401
Y031496
X033999
M30
